<svg width="30" height="30" viewBox="0 0 30 30" fill="none" xmlns="http://www.w3.org/2000/svg">
<path fill-rule="evenodd" clip-rule="evenodd" d="M12.207 0.18403C12.8789 -0.0114307 13.5885 -0.0518649 14.2794 0.0659549C14.9702 0.183775 15.6231 0.456586 16.1859 0.862611C16.7487 1.26864 17.2058 1.79663 17.5208 2.40445C17.8358 3.01227 17.9999 3.68308 18 4.36334V25.6367C17.9999 26.3169 17.8358 26.9877 17.5208 27.5955C17.2058 28.2034 16.7487 28.7314 16.1859 29.1374C15.6231 29.5434 14.9702 29.8162 14.2794 29.934C13.5885 30.0519 12.8789 30.0114 12.207 29.816L3.207 27.1975C2.28015 26.9279 1.46761 26.3757 0.889923 25.6229C0.312231 24.87 0.000158684 23.9566 0 23.0182V6.98177C0.000158684 6.04335 0.312231 5.12998 0.889923 4.37714C1.46761 3.6243 2.28015 3.0721 3.207 2.80246L12.207 0.18403ZM19.5 3.36252C19.5 2.97671 19.658 2.60671 19.9393 2.3339C20.2206 2.06109 20.6022 1.90783 21 1.90783H25.5C26.6935 1.90783 27.8381 2.36761 28.682 3.18603C29.5259 4.00445 30 5.11447 30 6.27189V7.72657C30 8.11238 29.842 8.48238 29.5607 8.75519C29.2794 9.028 28.8978 9.18126 28.5 9.18126C28.1022 9.18126 27.7206 9.028 27.4393 8.75519C27.158 8.48238 27 8.11238 27 7.72657V6.27189C27 5.88608 26.842 5.51608 26.5607 5.24327C26.2794 4.97046 25.8978 4.8172 25.5 4.8172H21C20.6022 4.8172 20.2206 4.66394 19.9393 4.39113C19.658 4.11833 19.5 3.74832 19.5 3.36252ZM28.5 20.8187C28.8978 20.8187 29.2794 20.972 29.5607 21.2448C29.842 21.5176 30 21.8876 30 22.2734V23.7281C30 24.8855 29.5259 25.9955 28.682 26.814C27.8381 27.6324 26.6935 28.0922 25.5 28.0922H21C20.6022 28.0922 20.2206 27.9389 19.9393 27.6661C19.658 27.3933 19.5 27.0233 19.5 26.6375C19.5 26.2517 19.658 25.8817 19.9393 25.6089C20.2206 25.3361 20.6022 25.1828 21 25.1828H25.5C25.8978 25.1828 26.2794 25.0295 26.5607 24.7567C26.842 24.4839 27 24.1139 27 23.7281V22.2734C27 21.8876 27.158 21.5176 27.4393 21.2448C27.7206 20.972 28.1022 20.8187 28.5 20.8187ZM10.5 13.5453C10.1022 13.5453 9.72064 13.6986 9.43934 13.9714C9.15804 14.2442 9 14.6142 9 15C9 15.3858 9.15804 15.7558 9.43934 16.0286C9.72064 16.3014 10.1022 16.4547 10.5 16.4547H10.5015C10.8993 16.4547 11.2809 16.3014 11.5622 16.0286C11.8435 15.7558 12.0015 15.3858 12.0015 15C12.0015 14.6142 11.8435 14.2442 11.5622 13.9714C11.2809 13.6986 10.8993 13.5453 10.5015 13.5453H10.5Z" fill="#0D0D0D" fill-opacity="0.75"/>
<path d="M21 14.9999H28.5ZM28.5 14.9999L25.5 12.0906ZM28.5 14.9999L25.5 17.9093Z" fill="#0D0D0D" fill-opacity="0.75"/>
<path d="M21 14.9999H28.5M28.5 14.9999L25.5 12.0906M28.5 14.9999L25.5 17.9093" stroke="#0D0D0D" stroke-opacity="0.75" stroke-width="2" stroke-linecap="round" stroke-linejoin="round"/>
</svg>
