<svg width="30" height="30" viewBox="0 0 30 30" fill="none" xmlns="http://www.w3.org/2000/svg">
<path d="M28.7438 30H1.25625C0.922861 29.9994 0.603335 29.8606 0.367808 29.6141C0.132281 29.3676 -5.43123e-07 29.0336 0 28.6853V1.31467C-2.46106e-09 1.14202 0.0325525 0.971067 0.095799 0.811565C0.159045 0.652062 0.251747 0.507134 0.368612 0.385056C0.485476 0.262978 0.624214 0.166141 0.776905 0.100073C0.929595 0.0340049 1.09325 0 1.25852 0C1.42379 0 1.58744 0.0340049 1.74013 0.100073C1.89282 0.166141 2.03156 0.262978 2.14843 0.385056C2.26529 0.507134 2.35799 0.652062 2.42124 0.811565C2.48449 0.971067 2.51704 1.14202 2.51704 1.31467V27.3707H28.7415C29.0753 27.3707 29.3954 27.5092 29.6314 27.7557C29.8674 28.0023 30 28.3367 30 28.6853C30 29.034 29.8674 29.3684 29.6314 29.6149C29.3954 29.8615 29.0753 30 28.7415 30H28.7438ZM5.05225 24.6939V10.1424C5.05285 9.84363 5.16673 9.55728 5.36896 9.34603C5.57119 9.13477 5.84531 9.01581 6.1313 9.01519H7.91686C8.20286 9.01581 8.47697 9.13477 8.6792 9.34603C8.88143 9.55728 8.99531 9.84363 8.99591 10.1424V24.6939H5.05225ZM11.3789 24.6939V2.11913C11.3795 1.82037 11.4934 1.53403 11.6956 1.32277C11.8979 1.11152 12.172 0.992559 12.458 0.991932H14.2435C14.5295 0.992559 14.8036 1.11152 15.0059 1.32277C15.2081 1.53403 15.322 1.82037 15.3226 2.11913V24.6939H11.3789ZM17.7056 24.6939V10.1424C17.7062 9.84363 17.8201 9.55728 18.0223 9.34603C18.2245 9.13477 18.4986 9.01581 18.7846 9.01519H20.5702C20.8562 9.01581 21.1303 9.13477 21.3325 9.34603C21.5348 9.55728 21.6487 9.84363 21.6493 10.1424V24.6939H17.7056ZM24.0345 24.6939V18.1609C24.0351 17.8621 24.149 17.5758 24.3512 17.3645C24.5535 17.1533 24.8276 17.0343 25.1136 17.0337H26.8969C27.1829 17.0343 27.457 17.1533 27.6592 17.3645C27.8614 17.5758 27.9753 17.8621 27.9759 18.1609V24.6939H24.0345Z" fill="#0D0D0D" fill-opacity="0.75"/>
</svg>
