<svg width="120" height="40" viewBox="0 0 120 40" fill="none" xmlns="http://www.w3.org/2000/svg">
<path d="M41.1368 37.2073C41.2542 37.5072 41.4035 37.7197 41.5848 37.8446C41.7662 37.9696 42.0328 38.0446 42.3848 38.0695L42.4488 38.157L42.3368 38.8943C42.1982 38.886 41.9368 38.8777 41.5528 38.8693C41.1688 38.861 40.7742 38.8568 40.3688 38.8568C39.8035 38.8568 39.2488 38.8693 38.7048 38.8943C38.1608 38.9277 37.8141 38.9485 37.6648 38.9568L37.5848 38.8568L37.6648 38.0945C38.0275 38.0695 38.2888 38.0446 38.4488 38.0196C38.6195 37.9863 38.7368 37.9446 38.8008 37.8946C38.8648 37.8363 38.8968 37.753 38.8968 37.6447C38.8968 37.5447 38.8648 37.4072 38.8008 37.2323L38.4808 36.2826C38.2035 36.2743 37.7181 36.2701 37.0248 36.2701C36.6088 36.2701 36.1021 36.2993 35.5048 36.3576L35.1208 37.2948C35.0568 37.4697 35.0248 37.5989 35.0248 37.6822C35.0248 37.8238 35.0781 37.9238 35.1848 37.9821C35.2915 38.0321 35.4835 38.057 35.7608 38.057H36.4328L36.5128 38.1445L36.4008 38.9318C36.2515 38.9235 35.9261 38.9068 35.4248 38.8818C34.9341 38.8652 34.4808 38.8568 34.0648 38.8568C33.6168 38.8568 33.2061 38.861 32.8328 38.8693C32.4701 38.8777 32.2301 38.886 32.1128 38.8943L32.2408 38.057C32.4968 38.0238 32.6995 37.9488 32.8488 37.8321C33.0088 37.7072 33.1528 37.5072 33.2808 37.2323L36.1288 30.8968L38.6728 30.6968L38.8488 30.7593C39.0088 31.2342 39.3395 32.2089 39.8408 33.6834C40.3528 35.1496 40.7848 36.3243 41.1368 37.2073ZM37.0088 35.2829C37.3501 35.2829 37.7448 35.2663 38.1928 35.2329L37.2648 32.4838H37.0408L35.8888 35.2829H37.0088ZM47.2262 34.1083C47.2262 34.0083 47.1888 33.9417 47.1142 33.9084C47.0502 33.875 46.9168 33.8584 46.7142 33.8584H46.2662L46.2022 33.7709L46.3302 33.0711L48.0742 33.0836L49.5302 33.0711L49.4022 33.8459C49.1676 33.8709 48.9968 33.9292 48.8902 34.0208C48.7942 34.1041 48.6716 34.2874 48.5222 34.5707L46.5222 38.8568L44.4102 39.0442C44.2716 38.6528 43.9996 37.8905 43.5942 36.7575C43.1888 35.6245 42.9062 34.8622 42.7462 34.4707C42.5862 34.0625 42.2555 33.8542 41.7542 33.8459L41.7222 33.7834L41.8342 33.0711L43.3542 33.0836C43.7916 33.0836 44.2342 33.0711 44.6822 33.0461C45.1302 33.0211 45.4182 33.0045 45.5462 32.9961L45.5782 33.0586L45.4502 33.7959C45.1196 33.8209 44.9062 33.8542 44.8102 33.8959C44.7142 33.9292 44.6662 34.0042 44.6662 34.1208C44.6662 34.2624 44.7996 34.7747 45.0662 35.6578C45.3436 36.5409 45.5356 37.1407 45.6422 37.4572H45.8022C46.7516 35.4412 47.2262 34.3249 47.2262 34.1083ZM51.6755 36.0452C51.7075 36.595 51.8941 37.0241 52.2355 37.3323C52.5875 37.6322 53.0621 37.7821 53.6595 37.7821C53.9581 37.7821 54.2515 37.7571 54.5395 37.7072C54.8275 37.6489 55.0621 37.5906 55.2435 37.5322C55.4249 37.4656 55.5421 37.4239 55.5955 37.4072L55.7075 37.4447L55.9795 38.082C55.9795 38.0904 55.8088 38.1779 55.4675 38.3445C55.1368 38.5111 54.7635 38.6653 54.3475 38.8068C53.9421 38.9402 53.5688 39.0068 53.2275 39.0068C52.0968 39.0068 51.2061 38.7485 50.5555 38.232C49.9155 37.7155 49.5955 37.0116 49.5955 36.1202C49.5955 35.5204 49.7608 34.9789 50.0915 34.4957C50.4221 34.0125 50.8755 33.6334 51.4515 33.3585C52.0275 33.0753 52.6728 32.9337 53.3875 32.9337C55.1901 32.9337 56.0915 33.6501 56.0915 35.083C56.0915 35.2329 56.0755 35.3787 56.0435 35.5204C56.0115 35.662 55.9901 35.7536 55.9795 35.7953L55.7875 35.9327H51.6755V36.0452ZM53.8195 35.1455C53.9368 35.1288 54.0168 35.1038 54.0595 35.0705C54.1021 35.0372 54.1235 34.9664 54.1235 34.8581C54.1235 34.2416 53.7875 33.9333 53.1155 33.9333C52.6995 33.9333 52.3635 34.0458 52.1075 34.2707C51.8621 34.4873 51.7181 34.8081 51.6755 35.2329L53.8195 35.1455ZM61.6898 38.1695C61.9458 38.1195 62.127 38.0446 62.2338 37.9446C62.351 37.8363 62.415 37.6781 62.4258 37.4697L62.4738 35.3329C62.4738 34.6081 62.1324 34.2458 61.4498 34.2458C61.087 34.2458 60.6284 34.3999 60.0738 34.7081C59.967 36.2243 59.9138 37.1574 59.9138 37.5072C59.9138 37.7238 59.9458 37.8738 60.0098 37.9571C60.0844 38.0321 60.2124 38.0695 60.3938 38.0695C60.4684 38.0695 60.5484 38.0654 60.6338 38.057C60.719 38.0487 60.7778 38.0446 60.8098 38.0446L60.8418 38.107L60.6818 38.8943C60.5644 38.886 60.3404 38.8777 60.0098 38.8693C59.679 38.861 59.3378 38.8568 58.9858 38.8568C58.6444 38.8568 58.2658 38.8652 57.8498 38.8818C57.4444 38.9068 57.183 38.9235 57.0658 38.9318L57.2098 38.132C57.519 38.107 57.7324 38.0446 57.8498 37.9446C57.9778 37.8446 58.0418 37.6781 58.0418 37.4447V34.8206C58.0418 34.529 57.983 34.3332 57.8658 34.2333C57.759 34.1249 57.5564 34.0708 57.2578 34.0708H57.0498L56.9858 34.0083L57.0658 33.346C57.6844 33.271 58.2924 33.1919 58.8898 33.1086C59.4978 33.017 59.887 32.9586 60.0578 32.9337L60.1858 33.0586C60.1644 33.1086 60.1324 33.2211 60.0898 33.396C60.047 33.571 60.0204 33.7459 60.0098 33.9209L60.0738 33.9708C60.4258 33.7292 60.8098 33.496 61.2258 33.271C61.6418 33.0461 61.9458 32.9337 62.1378 32.9337C62.895 32.9337 63.487 33.0794 63.9138 33.371C64.3404 33.6543 64.5538 34.05 64.5538 34.5582C64.5538 34.6914 64.511 35.133 64.4258 35.8828C64.319 36.7158 64.2658 37.2532 64.2658 37.4947C64.2658 37.7114 64.303 37.8655 64.3778 37.9571C64.4524 38.0404 64.5804 38.082 64.7618 38.082L65.2418 38.0695L65.2738 38.1195L65.1298 38.8943C65.0018 38.886 64.767 38.8777 64.4258 38.8693C64.0844 38.861 63.7378 38.8568 63.3858 38.8568C63.1298 38.8568 62.799 38.8693 62.3938 38.8943C61.9884 38.9277 61.7218 38.9485 61.5938 38.9568L61.6898 38.1695ZM66.9107 34.6581C66.9107 34.4415 66.8681 34.2874 66.7827 34.1958C66.6974 34.0958 66.5587 34.0458 66.3667 34.0458C66.2707 34.0458 66.1854 34.05 66.1107 34.0583C66.0361 34.0666 65.9881 34.075 65.9667 34.0833L66.0627 33.346C66.6281 33.2794 67.2094 33.2044 67.8067 33.1211C68.4147 33.0295 68.8095 32.967 68.9907 32.9337L69.1507 33.1461C69.0335 33.346 68.9321 33.8 68.8467 34.5082C68.7615 35.208 68.7187 35.9286 68.7187 36.67C68.7187 37.0116 68.7987 37.2657 68.9587 37.4322C69.1187 37.5989 69.3695 37.6822 69.7107 37.6822C69.9135 37.6822 70.1161 37.6447 70.3187 37.5697C70.5215 37.4864 70.7721 37.3698 71.0707 37.2198V34.6706C71.0707 34.429 71.0227 34.2707 70.9267 34.1958C70.8415 34.1125 70.6601 34.0666 70.3827 34.0583L70.1107 34.0708L70.2387 33.346C70.8147 33.2794 71.4121 33.2044 72.0307 33.1211C72.6495 33.0378 73.0495 32.9836 73.2307 32.9586L73.3907 33.1711C73.2735 33.3627 73.1721 33.85 73.0867 34.6331C73.0015 35.4079 72.9587 36.2618 72.9587 37.1948C72.9587 37.3532 73.0067 37.4781 73.1027 37.5697C73.2095 37.6614 73.3481 37.7072 73.5187 37.7072C73.6361 37.7072 73.7481 37.6906 73.8547 37.6572C73.9721 37.6239 74.0627 37.5906 74.1267 37.5572C74.2015 37.5239 74.2495 37.5031 74.2707 37.4947L74.5267 37.7571C74.4841 37.8155 74.3721 37.9363 74.1907 38.1195C74.0201 38.2945 73.8121 38.4778 73.5667 38.6694C73.3215 38.8527 73.0815 38.9652 72.8467 39.0068C71.8761 39.0068 71.3321 38.6861 71.2147 38.0446L71.0867 37.9946C70.6815 38.2945 70.3135 38.5361 69.9827 38.7193C69.6521 38.9027 69.4281 38.9943 69.3107 38.9943C68.4895 38.9943 67.8655 38.861 67.4387 38.5944C67.0121 38.3195 66.7987 37.928 66.7987 37.4197L66.9107 34.6581ZM76.9568 36.0452C76.9888 36.595 77.1754 37.0241 77.5168 37.3323C77.8688 37.6322 78.3434 37.7821 78.9408 37.7821C79.2394 37.7821 79.5328 37.7571 79.8208 37.7072C80.1088 37.6489 80.3434 37.5906 80.5248 37.5322C80.7062 37.4656 80.8234 37.4239 80.8768 37.4072L80.9888 37.4447L81.2608 38.082C81.2608 38.0904 81.0902 38.1779 80.7488 38.3445C80.4182 38.5111 80.0448 38.6653 79.6288 38.8068C79.2234 38.9402 78.8502 39.0068 78.5088 39.0068C77.3782 39.0068 76.4874 38.7485 75.8368 38.232C75.1968 37.7155 74.8768 37.0116 74.8768 36.1202C74.8768 35.5204 75.0422 34.9789 75.3728 34.4957C75.7034 34.0125 76.1568 33.6334 76.7328 33.3585C77.3088 33.0753 77.9542 32.9337 78.6688 32.9337C80.4714 32.9337 81.3728 33.6501 81.3728 35.083C81.3728 35.2329 81.3568 35.3787 81.3248 35.5204C81.2928 35.662 81.2714 35.7536 81.2608 35.7953L81.0688 35.9327H76.9568V36.0452ZM79.1008 35.1455C79.2182 35.1288 79.2982 35.1038 79.3408 35.0705C79.3834 35.0372 79.4048 34.9664 79.4048 34.8581C79.4048 34.2416 79.0688 33.9333 78.3968 33.9333C77.9808 33.9333 77.6448 34.0458 77.3888 34.2707C77.1434 34.4873 76.9994 34.8081 76.9568 35.2329L79.1008 35.1455Z" fill="white"/>
<path d="M24.8096 24.468C25.3698 24.998 25.6322 25.2789 25.6172 25.5684C25.5877 26.1402 24.8224 26.4082 23.8107 26.3957C23.3648 26.3903 23.0769 26.3864 22.3604 26.1635C22.3604 26.1635 21.9016 25.9137 20.7972 25.9252C19.685 25.8867 19.2006 26.1277 19.2006 26.1277C18.462 26.3326 18.1846 26.327 17.7392 26.3215C16.7275 26.3091 15.9903 26.0229 16.0198 25.4509C16.0347 25.1614 16.3266 24.8876 16.9405 24.3717C16.9405 24.3717 18.1037 23.3435 19.0904 22.8652C19.8033 22.5201 20.8161 22.5338 20.8161 22.5338L21.1285 22.5377C21.1285 22.5377 22.1858 22.549 22.8187 22.911C23.7241 23.4304 24.8096 24.4682 24.8096 24.468ZM18.5365 21.8087C19.5942 21.8217 20.4906 21.0767 20.5387 20.1448C20.5868 19.2129 19.7685 18.4469 18.7107 18.4339C17.653 18.4209 16.7567 19.1659 16.7086 20.0978C16.6605 21.0296 17.4788 21.7957 18.5365 21.8087ZM16.6169 23.4204C17.407 23.2264 17.622 22.507 17.0969 21.8135C16.5717 21.1199 15.5057 20.7148 14.7156 20.9085C13.9256 21.1023 13.7108 21.8219 14.2356 22.5154C14.7608 23.209 15.8269 23.614 16.6169 23.4204ZM22.9889 21.8634C24.0466 21.8764 24.9432 21.1314 24.9913 20.1995C25.0394 19.2676 24.2208 18.5016 23.1631 18.4886C22.1054 18.4756 21.2091 19.2206 21.161 20.1525C21.1129 21.0843 21.9312 21.8504 22.9889 21.8634ZM26.8981 21.058C26.1288 20.845 25.0226 21.2234 24.4265 21.9034C23.8305 22.5833 23.971 23.3071 24.7404 23.5202C25.5097 23.7331 26.616 23.3546 27.212 22.6748C27.808 21.9951 27.6675 21.2711 26.8981 21.058Z" fill="white"/>
<path d="M67.0001 12.7199L60.049 9.29894C59.6873 9.15214 59.1697 9.15214 58.808 9.29894L44.2559 15.4241C43.9318 15.5557 42.6714 16.0804 42.6714 16.0804C42.8109 16.2774 43.6101 17.065 44.0274 17.065L45.2445 17.1155V26.4736H43.2709C42.7267 26.4736 42.2856 26.6944 42.2856 26.9669V28.3858C42.2856 28.6583 42.7267 28.8791 43.2709 28.8791H75.5862C76.1304 28.8791 76.5714 28.6583 76.5714 28.3858V26.9669C76.5714 26.6944 76.1304 26.4736 75.5862 26.4736H73.6743L73.5001 20.2022L67.0001 12.7199ZM59.4285 17.3931C64 17.3931 67.4286 20.2394 67.4286 21.8226V26.4736H51.4285V21.8226C51.4286 20.2394 54.8571 17.3931 59.4285 17.3931ZM44.2562 27.8925H47.9544H51.6525H44.2562ZM53.6231 27.8924L59.4285 28.3858L65.234 27.8924L59.4285 27.3104L53.6231 27.8924Z" fill="white"/>
<path d="M86.1167 13.6458C86.6785 13.9554 94.7612 15.0424 93.4737 16.5634C92.1021 18.1893 88.1327 18.9705 84.7505 19.1333C82.7587 19.194 80.9719 19.0946 79.4209 18.7706C78.8511 18.6645 78.3699 18.5679 77.8001 18.4619C77.4074 18.3745 76.0147 19.0179 76.0147 19.0179L69.2132 11.635C69.2132 11.635 71.0564 10.9245 73.6122 9.7492C74.4212 9.31289 75.0529 8.85772 75.6846 8.40254L75.6846 8.40252C78.4095 6.30784 81.0498 6.88373 81.5175 7.06976C82.6868 7.53482 82.8266 8.25377 82.1216 9.04206C81.7191 9.47598 81.334 9.93491 80.9308 10.369C80.867 10.4982 80.9235 10.5724 81.1378 10.6408C81.5491 10.7527 81.8905 10.8799 82.2318 11.007C84.3318 11.7299 84.3983 12.7819 86.1167 13.6458Z" fill="white"/>
<path d="M103.889 10.5981C100.863 9.26058 98.9046 11.2877 98.7062 12.3782C98.5079 13.4691 98.4136 12.2783 98.8234 11.4859C99.2991 10.5642 97.2324 10.108 95.3636 10.3812C93.4952 10.6547 92.0564 12.6733 94.3564 14.2047C96.0764 15.3511 97.067 15.2459 97.0806 16.9374C97.0806 16.9374 97.1884 20.6877 97.1983 21.8965C97.2087 23.1046 96.5957 24.4439 94.7334 25.5028C92.8716 26.5615 92.8841 28.0717 94.8134 28.9774C96.7426 29.883 100.625 28.8919 100.033 28.2227C99.4415 27.5526 99.2133 26.7558 99.2133 26.7558C99.3188 26.9957 99.9597 28.978 103.078 28.9856C106.197 28.9927 107.735 26.4891 104.709 25.2117C101.918 24.032 102.3 25.8905 102.289 24.5008C102.278 23.1115 102.22 16.2157 102.22 16.2157C102.211 15.1278 102.986 14.6011 103.916 13.9206C104.846 13.2396 106.097 11.5747 103.889 10.5981Z" fill="white"/>
<path d="M115.586 12.6479C114.994 11.0914 112.379 11.6774 111.431 12.2243C110.482 12.7714 111.302 12.1395 112.134 11.8141C113.101 11.4353 112.392 10.5746 111.178 10.2188C109.964 9.86322 107.634 10.5853 107.686 12.0518C107.725 13.1492 108.338 13.3597 107.04 14.2951C107.04 14.2951 104.203 16.3899 103.276 17.0584C102.349 17.7266 100.905 18.7012 99.0882 18.78C97.2716 18.8587 99.6434 18.5964 99.9801 19.618C100.317 20.6395 99.296 21.4311 99.4947 20.9021C99.6942 20.3726 100.607 20.2807 100.607 20.2807C100.478 20.4415 99.8715 20.5229 101.539 21.3718C103.208 22.2207 101.811 21.6598 104.748 20.9192C104.161 19.5132 102.931 20.6403 103.998 19.8719C105.064 19.1037 110.355 15.2899 110.355 15.2899C111.19 14.6884 112.012 14.6083 113.036 14.4853C114.061 14.3621 116.017 13.7841 115.586 12.6479Z" fill="white"/>
<path d="M111.028 28.9273C113.862 28.9186 113.395 27.2998 112.644 26.6421C111.893 25.9842 112.955 26.694 113.345 27.2381C113.8 27.8709 115.312 27.5407 116.188 26.9222C117.064 26.3037 116.3 24.8192 113.737 24.5387C111.819 24.3283 111.323 24.6342 109.97 23.6941C109.97 23.6941 106.925 21.6296 105.958 20.9578C104.992 20.2866 103.601 19.2553 103.849 18.2001C104.096 17.1452 104.051 18.5563 102.202 18.5324C100.353 18.5085 99.1915 17.7576 100.07 17.9831C100.949 18.2092 100.916 18.7504 100.916 18.7504C100.663 18.6428 100.65 18.2788 98.8197 19.0523C96.9893 19.8262 98.261 19.1467 98.9282 20.982C101.499 20.9438 99.7981 20.0026 100.91 20.7749C102.021 21.547 107.537 25.3783 107.537 25.3783C108.407 25.9829 108.373 26.4698 108.37 27.0811C108.367 27.6929 108.959 28.9333 111.028 28.9273Z" fill="white"/>
<path d="M83.8215 13.4608C83.8215 13.4608 82.2106 13.7453 81.317 13.1987C80.4235 12.652 80.2527 11.4719 80.2527 11.4719C80.2527 11.4719 82.0179 11.8432 82.7517 12.1172C83.4856 12.3911 83.8215 13.4608 83.8215 13.4608Z" fill="#3C3D42"/>
<path d="M19.7063 0C26.8335 0 32.3917 0.751272 36.3809 2.25381C40.37 3.72853 42.338 5.45366 42.2848 7.42923C42.2315 9.40477 41.3806 10.9352 39.7317 12.0203C38.1361 13.1055 35.3702 14.1768 31.4343 15.2341L31.3545 15.5263C34.3331 15.888 37.0191 16.5558 39.4126 17.5296C40.5295 18.5035 41.088 19.5887 41.088 20.7851C40.9817 23.8459 38.6148 26.6005 33.9874 29.0491C26.4878 30.4403 17.8447 31.0247 8.05804 30.8021C3.05833 30.1343 0.372319 28.9935 0 27.3796C3.24449 21.7034 5.71775 16.5836 7.41978 12.0203L9.25478 3.38072L6.14326 3.63114C5.07949 3.2416 4.44123 2.76857 4.22848 2.21207C4.06891 1.62775 4.30826 1.15473 4.94652 0.793009C9.30797 0.264335 14.2278 0 19.7063 0ZM9.41434 28.0474C16.648 28.1587 22.7115 27.7692 27.6048 26.8788C30.4237 25.098 31.8865 23.1363 31.9928 20.9938C31.9928 20.1869 31.7002 19.4217 31.1152 18.6983C28.9345 17.7801 26.541 17.1819 23.9348 16.9036C21.3285 16.5975 17.765 16.5558 13.2439 16.7784L9.41434 28.0474ZM33.1895 8.13876C33.2959 6.49712 31.9663 5.1615 29.2004 4.13199C26.4346 3.10247 22.4987 2.72683 17.3926 3.00508L13.7226 14.4411C19.5733 14.4967 24.4135 14.0793 28.243 13.189C30.3174 12.2429 31.6471 11.4916 32.2322 10.9352C32.8172 10.3787 33.1363 9.44651 33.1895 8.13876Z" fill="white"/>
</svg>
