<svg width="30" height="30" viewBox="0 0 30 30" fill="none" xmlns="http://www.w3.org/2000/svg">
<path fill-rule="evenodd" clip-rule="evenodd" d="M17.8086 0.22836C17.2239 5.96046e-08 16.4826 0 15 0C13.5174 0 12.776 5.96046e-08 12.1914 0.22836C11.4117 0.532845 10.7922 1.11687 10.4693 1.85195C10.3219 2.18751 10.2642 2.57775 10.2416 3.14699C10.2084 3.98352 9.7534 4.75784 8.98447 5.1764C8.21554 5.59494 7.27679 5.57931 6.49182 5.18814C5.95764 4.92195 5.57034 4.77393 5.1884 4.72653C4.35171 4.62267 3.50554 4.83644 2.83604 5.3208C2.3339 5.68407 1.96324 6.28935 1.22194 7.4999C0.480643 8.71046 0.110002 9.31572 0.0273911 9.90736C-0.0827719 10.6962 0.143965 11.494 0.657706 12.1252C0.892195 12.4134 1.22174 12.6555 1.73321 12.9585C2.48512 13.404 2.96892 14.1629 2.96887 15C2.96882 15.8371 2.48504 16.5958 1.73321 17.0412C1.22166 17.3443 0.892053 17.5866 0.657548 17.8748C0.143807 18.506 -0.0829139 19.3037 0.0272334 20.0925C0.109844 20.6841 0.480501 21.2895 1.22178 22.5C1.96308 23.7105 2.33374 24.3159 2.83588 24.6791C3.50538 25.1634 4.35156 25.3771 5.18824 25.2733C5.57017 25.2259 5.95744 25.0779 6.49156 24.8118C7.2766 24.4206 8.21541 24.405 8.98439 24.8235C9.75336 25.2421 10.2084 26.0164 10.2416 26.8531C10.2642 27.4222 10.3219 27.8125 10.4693 28.1481C10.7922 28.8831 11.4117 29.4672 12.1914 29.7717C12.776 30 13.5174 30 15 30C16.4826 30 17.2239 30 17.8086 29.7717C18.5883 29.4672 19.2077 28.8831 19.5306 28.1481C19.6781 27.8125 19.7359 27.4223 19.7584 26.853C19.7916 26.0165 20.2465 25.2421 21.0154 24.8235C21.7844 24.4048 22.7232 24.4206 23.5083 24.8118C24.0424 25.0779 24.4296 25.2258 24.8116 25.2732C25.6482 25.3772 26.4944 25.1634 27.1639 24.6791C27.6661 24.3158 28.0367 23.7105 28.778 22.4999C29.5193 21.2894 29.8899 20.6841 29.9727 20.0925C30.0827 19.3037 29.856 18.5058 29.3423 17.8746C29.1077 17.5864 28.7782 17.3442 28.2666 17.0412C27.5149 16.5958 27.0311 15.837 27.0311 14.9998C27.0311 14.1627 27.5149 13.4042 28.2666 12.9588C28.7783 12.6557 29.1079 12.4135 29.3425 12.1252C29.8561 11.4941 30.0829 10.6963 29.9728 9.90746C29.8901 9.31583 29.5195 8.71055 28.7782 7.5C28.0369 6.28945 27.6663 5.68417 27.164 5.3209C26.4945 4.83654 25.6484 4.62277 24.8117 4.72663C24.4298 4.77403 24.0424 4.92204 23.5084 5.1882C22.7234 5.57938 21.7846 5.59503 21.0156 5.17644C20.2467 4.75787 19.7916 3.98349 19.7583 3.14691C19.7357 2.57772 19.6781 2.1875 19.5306 1.85195C19.2077 1.11687 18.5883 0.532845 17.8086 0.22836ZM15 21C19.1594 21 21 18 21 15C21 12 19 9 15 9C11.5 9 9 11.5 9 15C9 18.5 11.5 21 15 21Z" fill="#0D0D0D" fill-opacity="0.75"/>
</svg>
