<svg width="10" height="10" viewBox="0 0 10 10" fill="none" xmlns="http://www.w3.org/2000/svg">
<path d="M8.02419 6.8581C7.63436 6.8581 7.27124 6.94822 6.96506 7.10316L3.87488 5.38781C3.92449 5.25012 3.95161 5.10488 3.95161 4.95454C3.95161 4.80418 3.92449 4.65894 3.87488 4.52126L6.88163 2.85221C7.20425 3.0344 7.5983 3.1419 8.02417 3.1419C9.11536 3.1419 9.99997 2.43856 9.99997 1.57096C9.99997 0.703365 9.11539 0 8.02419 0C6.933 0 6.04839 0.703343 6.04839 1.57094C6.04839 1.68552 6.06424 1.79712 6.09353 1.90472L3.01043 3.61616C2.70948 3.46879 2.35522 3.3836 1.97581 3.3836C0.884612 3.3836 0 4.08694 0 4.95454C0 5.82213 0.884584 6.52548 1.97581 6.52548C2.35519 6.52548 2.70948 6.44029 3.01043 6.29291L6.11733 8.01757C6.07266 8.14877 6.04839 8.28664 6.04839 8.42906C6.04839 9.29666 6.933 10 8.02419 10C9.11539 10 10 9.29666 10 8.42906C10 7.56147 9.11539 6.8581 8.02419 6.8581Z" fill="white"/>
</svg>
